<?xml version="1.0" encoding="UTF-8"?>
<svg version="1.1" xmlns="http://www.w3.org/2000/svg" width="32" height="32">
<path d="M0 0 C0.99 0.33 1.98 0.66 3 1 C2.54625 1.721875 2.0925 2.44375 1.625 3.1875 C-0.60048129 7.5339799 -0.89267561 12.28523572 -1.47265625 17.07421875 C-2 20 -2 20 -4 23 C-3.01 24.98 -2.02 26.96 -1 29 C-2.74937646 31.20421434 -3.6294915 31.93982187 -6.453125 32.3984375 C-12.33452084 32.34915206 -16.95239557 32.1821854 -22 29 C-22.9375 26.3125 -22.9375 26.3125 -23 24 C-22.34 23.649375 -21.68 23.29875 -21 22.9375 C-18.61215596 21.07980938 -18.61215596 21.07980938 -18.9375 17.6875 C-18.958125 16.470625 -18.97875 15.25375 -19 14 C-18.06295743 11.9697411 -17.07074592 9.96303418 -16 8 C-16 7.01 -16 6.02 -16 5 C-18.475 4.01 -18.475 4.01 -21 3 C-21 2.34 -21 1.68 -21 1 C-18.03 1 -15.06 1 -12 1 C-11.34 2.32 -10.68 3.64 -10 5 C-6.94091587 5.81584568 -6.94091587 5.81584568 -4 6 C-3.566875 5.071875 -3.566875 5.071875 -3.125 4.125 C-2 2 -2 2 0 0 Z " fill="#EDD882" transform="translate(26,0)"/>
<path d="M0 0 C1.32 0 2.64 0 4 0 C4 0.66 4 1.32 4 2 C4.99 2 5.98 2 7 2 C6.34 3.98 5.68 5.96 5 8 C5.66 8 6.32 8 7 8 C7.33 9.65 7.66 11.3 8 13 C1.4375 16.48214286 1.4375 16.48214286 -2.9375 15.1875 C-3.948125 14.795625 -4.95875 14.40375 -6 14 C-6.8125 11.8125 -6.8125 11.8125 -7 9 C-4.6875 6.1875 -4.6875 6.1875 -2 4 C-1.34 4 -0.68 4 0 4 C0 2.68 0 1.36 0 0 Z " fill="#DEDB90" transform="translate(10,15)"/>
<path d="M0 0 C2.64 0.33 5.28 0.66 8 1 C8 1.66 8 2.32 8 3 C8.99 3.33 9.98 3.66 11 4 C10.67 6.31 10.34 8.62 10 11 C8.35 11 6.7 11 5 11 C5.66 9.35 6.32 7.7 7 6 C4.03 5.505 4.03 5.505 1 5 C0.67 5.99 0.34 6.98 0 8 C-0.66 8 -1.32 8 -2 8 C-1.47731534 5.23723823 -0.89130413 2.6739124 0 0 Z " fill="#7F6757" transform="translate(10,11)"/>
<path d="M0 0 C1.45792884 -0.05399736 2.91642712 -0.09279177 4.375 -0.125 C5.18710938 -0.14820312 5.99921875 -0.17140625 6.8359375 -0.1953125 C9 0 9 0 11 2 C10.60467975 4.45098556 9.78698574 6.63904279 9 9 C8.01 9 7.02 9 6 9 C5.34 10.98 4.68 12.96 4 15 C3.34 15 2.68 15 2 15 C2.4640625 13.39125 2.4640625 13.39125 2.9375 11.75 C3.66812096 9.17133778 4.37482904 6.60487898 5 4 C2.525 3.01 2.525 3.01 0 2 C0 1.34 0 0.68 0 0 Z " fill="#E2D685" transform="translate(5,1)"/>
<path d="M0 0 C0.66 0.33 1.32 0.66 2 1 C1.01 3.64 0.02 6.28 -1 9 C-1.66 9 -2.32 9 -3 9 C-3 8.34 -3 7.68 -3 7 C-3.66 7 -4.32 7 -5 7 C-5 7.66 -5 8.32 -5 9 C-7.64 8.67 -10.28 8.34 -13 8 C-12.34 7.34 -11.68 6.68 -11 6 C-10.34 6.33 -9.68 6.66 -9 7 C-8.67 5.68 -8.34 4.36 -8 3 C-4.98968256 2.06576355 -4.13349732 1.95550089 -1 3 C-0.67 2.01 -0.34 1.02 0 0 Z " fill="#F3E18A" transform="translate(23,3)"/>
<path d="M0 0 C0.99 0.33 1.98 0.66 3 1 C2.37619308 2.41719242 1.7508997 3.8337306 1.125 5.25 C0.77695312 6.03890625 0.42890625 6.8278125 0.0703125 7.640625 C-0.90413905 9.78868608 -1.92986429 11.89829202 -3 14 C-4.65 14 -6.3 14 -8 14 C-8 12.68 -8 11.36 -8 10 C-7.34 10 -6.68 10 -6 10 C-6 10.66 -6 11.32 -6 12 C-5.34 12 -4.68 12 -4 12 C-3.814375 11.2265625 -3.814375 11.2265625 -3.625 10.4375 C-1.27586207 1.27586207 -1.27586207 1.27586207 0 0 Z " fill="#AC9A61" transform="translate(26,0)"/>
<path d="M0 0 C0.66 0.33 1.32 0.66 2 1 C1.01 3.64 0.02 6.28 -1 9 C-1.66 9 -2.32 9 -3 9 C-3 8.34 -3 7.68 -3 7 C-3.66 7 -4.32 7 -5 7 C-3.88820837 3.66462511 -2.52588702 2.36292656 0 0 Z " fill="#EFDA80" transform="translate(23,3)"/>
<path d="M0 0 C1.32 0 2.64 0 4 0 C4 0.66 4 1.32 4 2 C4.99 2 5.98 2 7 2 C7 2.66 7 3.32 7 4 C2.25 5.125 2.25 5.125 0 4 C0 2.68 0 1.36 0 0 Z " fill="#FAE4D0" transform="translate(10,15)"/>
<path d="M0 0 C1.32 0.33 2.64 0.66 4 1 C4 2.65 4 4.3 4 6 C2.68 6.33 1.36 6.66 0 7 C0.33 6.01 0.66 5.02 1 4 C0.61067144 1.85744207 0.61067144 1.85744207 0 0 Z " fill="#634F41" transform="translate(17,14)"/>
<path d="M0 0 C2.97 0 5.94 0 9 0 C8.67 0.99 8.34 1.98 8 3 C5.36 2.67 2.72 2.34 0 2 C0 1.34 0 0.68 0 0 Z " fill="#938A56" transform="translate(5,1)"/>
<path d="M0 0 C0.66 0 1.32 0 2 0 C2.33 1.65 2.66 3.3 3 5 C0 7 0 7 -2.1875 6.625 C-2.785625 6.41875 -3.38375 6.2125 -4 6 C-3.01 5.67 -2.02 5.34 -1 5 C-0.67 3.35 -0.34 1.7 0 0 Z " fill="#F4E48E" transform="translate(15,23)"/>
<path d="M0 0 C0 0.33 0 0.66 0 1 C-3.3 1 -6.6 1 -10 1 C-10 0.34 -10 -0.32 -10 -1 C-6.18510326 -2.46726798 -3.70988378 -1.43336419 0 0 Z " fill="#8E8150" transform="translate(21,31)"/>
</svg>
